HIERARCHY
ROOT Hips
{
	OFFSET 222.100906 91.845993 97.126823
	CHANNELS 6 Xposition Yposition Zposition Zrotation Yrotation Xrotation 
	JOINT LeftUpLeg
	{
		OFFSET 0.103458 1.857826 10.548496
		CHANNELS 3 Zrotation Yrotation Xrotation
		JOINT LeftLeg
		{
			OFFSET 43.500000 -0.000027 -0.000004
			CHANNELS 3 Zrotation Yrotation Xrotation
			JOINT LeftFoot
			{
				OFFSET 42.372200 0.000015 -0.000005
				CHANNELS 3 Zrotation Yrotation Xrotation
				JOINT LeftToe
				{
					OFFSET 17.299997 -0.000002 0.000005
					CHANNELS 3 Zrotation Yrotation Xrotation
					End Site
					{
						OFFSET 0.000000 0.000000 0.000000
					}
				}
			}
		}
	}
	JOINT RightUpLeg
	{
		OFFSET 0.103458 1.857826 -10.548510
		CHANNELS 3 Zrotation Yrotation Xrotation
		JOINT RightLeg
		{
			OFFSET 43.500046 -0.000015 0.000000
			CHANNELS 3 Zrotation Yrotation Xrotation
			JOINT RightFoot
			{
				OFFSET 42.372261 -0.000011 0.000021
				CHANNELS 3 Zrotation Yrotation Xrotation
				JOINT RightToe
				{
					OFFSET 17.299997 -0.000004 0.000000
					CHANNELS 3 Zrotation Yrotation Xrotation
					End Site
					{
						OFFSET 0.000000 0.000000 0.000000
					}
				}
			}
		}
	}
	JOINT Spine
	{
		OFFSET 6.901967 -2.603728 0.000002
		CHANNELS 3 Zrotation Yrotation Xrotation
		JOINT Spine1
		{
			OFFSET 12.588098 -0.000006 -0.000001
			CHANNELS 3 Zrotation Yrotation Xrotation
			JOINT Spine2
			{
				OFFSET 12.343200 0.000006 -0.000002
				CHANNELS 3 Zrotation Yrotation Xrotation
				JOINT Neck
				{
					OFFSET 25.832905 -0.000006 -0.000005
					CHANNELS 3 Zrotation Yrotation Xrotation
					JOINT Head
					{
						OFFSET 11.766604 0.000006 0.000006
						CHANNELS 3 Zrotation Yrotation Xrotation
						End Site
						{
							OFFSET 0.000000 0.000000 0.000000
						}
					}
				}
				JOINT LeftShoulder
				{
					OFFSET 19.745914 -1.480366 6.000100
					CHANNELS 3 Zrotation Yrotation Xrotation
					JOINT LeftArm
					{
						OFFSET 11.284136 -0.000006 -0.000022
						CHANNELS 3 Zrotation Yrotation Xrotation
						JOINT LeftForeArm
						{
							OFFSET 33.000057 0.000006 0.000029
							CHANNELS 3 Zrotation Yrotation Xrotation
							JOINT LeftHand
							{
								OFFSET 25.199999 0.000011 -0.000002
								CHANNELS 3 Zrotation Yrotation Xrotation
								End Site
								{
									OFFSET 0.000000 0.000000 0.000000
								}
							}
						}
					}
				}
				JOINT RightShoulder
				{
					OFFSET 19.746107 -1.480371 -6.000078
					CHANNELS 3 Zrotation Yrotation Xrotation
					JOINT RightArm
					{
						OFFSET 11.284137 -0.000012 0.000000
						CHANNELS 3 Zrotation Yrotation Xrotation
						JOINT RightForeArm
						{
							OFFSET 33.000088 0.000017 0.000001
							CHANNELS 3 Zrotation Yrotation Xrotation
							JOINT RightHand
							{
								OFFSET 25.199789 0.000135 0.000430
								CHANNELS 3 Zrotation Yrotation Xrotation
								End Site
								{
									OFFSET 0.000000 0.000000 0.000000
								}
							}
						}
					}
				}
			}
		}
	}
}
MOTION
Frames: 5
Frame Time: 0.033333
110.046997 12.663960 115.482597 21.599271 37.520019 -143.434601 154.293454 -36.494602 130.206191 -106.592697 2.847026 -14.378212 80.933630 7.912758 -8.763021 21.454553 0.003092 0.000005 -162.789417 6.040101 168.108687 -22.500030 10.779321 28.418119 83.488824 -18.757154 4.913064 21.454558 -0.003108 -0.000014 6.807528 -2.861926 -2.187465 3.717205 -5.653115 -4.470137 3.398452 -5.679851 -4.435906 0.874839 -4.195960 21.968308 -27.724935 -9.415499 26.604555 119.587965 -77.012213 59.781996 -106.778902 21.508872 -28.552002 -95.034897 -5.823863 2.935647 7.873120 -6.177716 96.445686 -170.272190 73.287479 11.388422 -47.326603 -38.500417 91.866434 -122.087104 -3.995321 -3.475939 -12.926499 8.706352 -50.454081 
110.017502 12.641510 115.363998 21.485029 37.521070 -143.682209 154.601291 -36.474197 130.139925 -106.416294 2.758661 -13.805458 80.899814 7.517170 -8.739491 21.454550 0.003091 0.000002 -162.866052 6.201604 168.472340 -22.479585 10.726761 28.322599 83.376993 -18.687420 4.932369 21.454553 -0.003108 -0.000016 6.769033 -2.841813 -2.158654 3.637840 -5.615382 -4.409822 3.319078 -5.641752 -4.375814 0.964568 -4.007460 21.895554 -27.838155 -9.396099 26.573262 119.376994 -77.045183 59.991525 -106.787214 21.728836 -28.420349 -95.056576 -5.803670 2.935436 7.842705 -6.506443 97.300423 -169.642310 73.366682 12.034967 -47.485176 -38.616124 91.769541 -122.164408 -4.015516 -3.476098 -12.881984 8.652730 -50.386712 
110.035896 12.622450 115.252502 21.306177 37.526453 -143.947289 154.826988 -36.429698 130.154596 -106.199490 2.657881 -13.215275 80.813296 7.118753 -8.665172 21.454553 0.003092 0.000002 -163.006057 6.352195 168.738348 -22.464064 10.697979 28.291822 83.169970 -18.666144 4.933726 21.454550 -0.003114 -0.000018 6.698469 -2.831874 -2.126769 3.494544 -5.599248 -4.342180 3.175761 -5.625217 -4.308270 0.753309 -3.851071 21.796648 -27.774969 -9.322282 26.439229 119.244502 -76.997979 60.128805 -106.595798 22.029824 -28.377351 -95.174363 -5.717803 2.934296 7.869853 -6.606112 97.902258 -169.019998 73.346601 12.673582 -47.664168 -38.750573 91.486422 -122.244513 -4.008042 -3.476272 -12.823209 8.552506 -50.493345 
110.064102 12.593690 115.158600 21.175362 37.512905 -144.147085 155.002182 -36.378691 130.120704 -106.034889 2.583340 -12.917687 80.698726 6.922181 -8.603106 21.454550 0.003092 -0.000009 -163.099972 6.469600 168.918378 -22.471783 10.672205 28.244589 82.976205 -18.633567 4.938482 21.454565 -0.003110 -0.000021 6.612879 -2.811441 -2.099403 3.320950 -5.562513 -4.282542 3.002162 -5.588097 -4.248856 0.390202 -3.531939 21.714449 -27.568896 -9.501805 26.439835 119.400873 -76.807738 59.987660 -106.147198 22.391308 -28.419727 -95.343335 -5.568498 2.932210 7.899707 -6.664908 98.423292 -168.250495 73.277486 13.463374 -47.961001 -38.825681 90.987607 -122.262695 -3.982652 -3.476108 -12.751002 8.411409 -50.779578 
110.100899 12.552490 115.074799 21.149630 37.358601 -144.249210 155.318761 -36.245799 129.955523 -105.881497 2.522145 -12.906286 80.594873 6.916372 -8.580850 21.454553 0.003092 -0.000005 -162.991413 6.641403 168.956764 -22.400929 10.702626 28.264469 82.824404 -18.637740 4.993324 21.454543 -0.003110 -0.000022 6.542717 -2.793370 -2.086903 3.179090 -5.529416 -4.253549 2.860309 -5.554840 -4.220063 0.016799 -3.202865 21.489462 -27.642780 -9.683770 26.332927 119.904299 -76.528479 59.505113 -105.473093 22.782595 -28.547862 -95.575889 -5.351037 2.927300 7.891763 -6.773238 98.888551 -167.443112 73.205319 14.292306 -48.430860 -38.824609 90.351470 -122.186306 -3.949763 -3.475265 -12.697392 8.263527 -51.197022 
